<?xml version="1.0" encoding="UTF-8" standalone="no"?>
<svg
   xmlns:dc="http://purl.org/dc/elements/1.1/"
   xmlns:cc="http://creativecommons.org/ns#"
   xmlns:rdf="http://www.w3.org/1999/02/22-rdf-syntax-ns#"
   xmlns:svg="http://www.w3.org/2000/svg"
   xmlns="http://www.w3.org/2000/svg"
   xmlns:sodipodi="http://sodipodi.sourceforge.net/DTD/sodipodi-0.dtd"
   xmlns:inkscape="http://www.inkscape.org/namespaces/inkscape"
   alt="Home"
   version="1.1"
   id="svg20"
   sodipodi:docname="A.svg"
   width="1000"
   height="727.01147"
   inkscape:version="0.92.4 (5da689c313, 2019-01-14)">
  <metadata
     id="metadata26">
    <rdf:RDF>
      <cc:Work
         rdf:about="">
        <dc:format>image/svg+xml</dc:format>
        <dc:type
           rdf:resource="http://purl.org/dc/dcmitype/StillImage" />
        <dc:title></dc:title>
      </cc:Work>
    </rdf:RDF>
  </metadata>
  <defs
     id="defs24" />
  <sodipodi:namedview
     pagecolor="#ffffff"
     bordercolor="#666666"
     borderopacity="1"
     objecttolerance="10"
     gridtolerance="10"
     guidetolerance="10"
     inkscape:pageopacity="0"
     inkscape:pageshadow="2"
     inkscape:window-width="1920"
     inkscape:window-height="1017"
     id="namedview22"
     showgrid="false"
     fit-margin-top="0"
     fit-margin-left="0"
     fit-margin-right="0"
     fit-margin-bottom="0"
     inkscape:zoom="0.417193"
     inkscape:cx="999.71072"
     inkscape:cy="149.7635"
     inkscape:window-x="1912"
     inkscape:window-y="-8"
     inkscape:window-maximized="1"
     inkscape:current-layer="svg20" />
  <path
     style="display:block;fill:none;stroke:#002756;stroke-width:18.90484619;stroke-linecap:round;stroke-linejoin:round;stroke-opacity:1"
     inkscape:connector-curvature="0"
     display="block"
     d="m 891.3715,175.62601 c -64.27647,40.07827 -151.71138,48.7745 -151.71138,48.7745 -63.04766,5.10431 -99.43949,4.72621 -161.82548,-8.9798 C 502.59336,198.78445 436.4264,137.24917 436.4264,137.24917 418.18322,119.85672 398.71123,99.439483 381.60235,79.872973 339.82264,31.854663 298.13745,9.4524231 250.59177,9.4524231 h -2.07954 c -36.86444,0 -72.12198,16.0691199 -96.7928,43.8592399 -24.5763,28.16822 -38.09327,67.679347 -38.09327,111.255017 0,25.61606 3.59192,52.93356 10.39767,80.44011 8.6017,35.25754 22.59129,70.79865 41.30709,105.20547 30.4368,56.05286 70.51507,101.51902 107.00142,121.7472 7.94004,4.34812 35.91921,18.62127 64.84362,18.62127 34.97396,0 61.91337,-19.28294 96.03661,-46.50592 39.22756,-31.19299 70.32603,-49.90879 105.67809,-49.90879 37.33707,0 60.30646,12.76077 80.25107,24.5763 l 0.47262,0.28357 6.99479,4.15907 c 22.30772,12.76077 53.50072,27.60108 67.1122,30.24775 5.67146,1.13429 11.53196,1.70144 17.20341,1.70144 20.32271,0 40.64542,-7.18384 60.21194,-21.17343 20.32271,-14.55673 39.88922,-36.48635 58.22692,-65.12719 44.23734,-69.00269 62.19694,-129.49819 62.19694,-208.61497 0,-52.36642 -39.51112,-93.389937 -89.89254,-93.389937 -45.84425,0 -88.9473,22.87487 -131.86129,69.947927 l -3.59193,3.8755 -6.61669,7.27836 c 0,0 -53.31167,55.3912 -70.9877,70.04245 -17.67603,14.74578 -108.32476,92.63375 -249.07133,94.52423 -137.34371,1.70144 -215.51524,-67.4903 -215.51524,-67.4903 0,0 50.85403,14.55673 122.69244,-3.49739 75.61939,-19.0939 121.65268,-51.23213 142.25897,-63.89838 20.60628,-12.66625 58.1324,-39.51113 58.1324,-39.51113 a 150.199,150.199 0 0 1 97.83257,-30.0587 c 19.47199,0.75619 38.84946,5.4824 57.65978,13.80053 15.12388,6.80575 29.86966,15.88007 43.95377,27.22298 0,0 20.13366,15.78555 35.63563,30.53133 15.50197,14.65125 48.49093,48.3964 103.22046,62.66956 54.82405,14.17863 96.98185,5.76598 96.98185,5.76598"
     id="wide-logo-image" />
  <path
     style="display:block;fill:#002756;fill-opacity:1;stroke-width:9.4524231"
     inkscape:connector-curvature="0"
     display="block"
     d="m 965.00588,713.94149 c 11.81553,0 20.32267,-9.3579 20.32267,-22.11867 0,-12.94982 -8.50714,-22.30772 -20.32267,-22.30772 -11.72101,0 -19.94462,9.16885 -19.94462,22.30772 0,12.76077 8.41266,22.11867 19.94462,22.11867 z m 27.60107,-57.37621 h 1.2288 c 3.6865,0.3781 6.42775,3.68645 6.1441,7.37289 v 56.90359 a 6.6166959,6.6166959 0 0 1 -7.1839,6.14407 h -1.3233 a 6.8057444,6.8057444 0 0 1 -6.1441,-7.56194 v -2.3631 a 29.586083,29.586083 0 0 1 -22.87483,9.92504 c -18.71579,0 -32.7999,-15.12388 -32.7999,-35.06849 0,-20.41723 13.80053,-35.25753 32.7999,-35.25753 8.69623,-0.18905 17.01433,3.40287 22.87483,9.92504 v -2.55215 -1.1343 c 0.2836,-3.78096 3.592,-6.52217 7.2784,-6.23859 z m -109.6481,11.72101 c -10.11409,0 -17.77056,6.80574 -19.75557,17.39245 h 39.98375 v -0.47262 a 18.715797,18.715797 0 0 0 -20.13366,-17.01436 z m 0,-11.72101 c 20.98438,0 34.97396,13.23339 34.97396,32.89443 0,6.6167 -4.72621,7.37289 -8.22361,7.37289 h -46.50592 c 2.07954,11.15386 10.39767,17.58151 22.78034,17.58151 5.67146,0 11.34291,-1.22882 16.25817,-3.97002 1.89048,-1.13429 3.97002,-1.79596 6.14407,-1.89048 h 1.1343 c 2.7412,0.28357 4.63168,2.7412 4.25359,5.38788 0,5.95502 -12.28815,12.94982 -28.16822,12.94982 -22.68582,0 -37.99874,-14.17864 -37.99874,-35.25754 a 33.745149,33.745149 0 0 1 35.44658,-34.97396 z m -85.92252,57.28168 c 11.81552,0 20.41723,-9.45242 20.41723,-22.30771 0,-13.2334 -8.41266,-22.49677 -20.41723,-22.49677 -11.53196,0 -20.03914,9.45242 -20.03914,22.49677 0,12.94981 8.50718,22.30771 20.03914,22.30771 z m 27.60107,-88.47467 a 6.9002686,6.9002686 0 0 1 7.27837,7.56193 v 86.77324 a 7.2783655,7.2783655 0 0 1 -7.37289,7.18385 7.2783655,7.2783655 0 0 1 -7.08932,-7.56194 v -2.36311 c -5.76598,6.52217 -14.17864,10.11409 -22.87486,9.92505 -18.99937,0 -32.89444,-14.84031 -32.89444,-35.35206 0,-20.60629 13.89507,-35.54111 32.89444,-35.54111 8.69622,-0.18905 17.01436,3.40287 22.87486,10.01956 v -33.08348 -1.32334 c 0.28357,-3.78096 3.49739,-6.61669 7.18384,-6.23859 z m -108.41929,88.47467 h 0.94524 c 3.30835,0.28358 5.67146,3.02478 5.48241,6.14408 0,4.44264 -3.1193,6.90027 -8.50718,6.90027 -14.65126,0 -22.68582,-8.22361 -22.68582,-23.25296 v -70.70413 -1.13429 a 7.2783655,7.2783655 0 0 1 7.94004,-6.42764 h 1.41786 c 3.8755,0.37809 6.71122,3.78096 6.33313,7.56193 v 70.6096 c 0,6.71122 3.11929,10.30314 9.07432,10.30314 z m -39.0385,0 h 0.94524 c 3.30835,0.28358 5.67145,3.02478 5.4824,6.14408 0,4.44264 -3.1193,6.90027 -8.50718,6.90027 -14.65125,0 -22.68581,-8.22361 -22.68581,-23.25296 v -71.83842 a 7.2783655,7.2783655 0 0 1 7.94003,-6.42764 h 1.32334 c 3.97002,0.37809 6.80575,3.78096 6.33313,7.56193 v 70.6096 c 0,6.71122 3.21382,10.30314 9.16885,10.30314 z m -79.40036,0.0945 c 11.81553,0 20.32271,-9.3579 20.32271,-22.11867 0,-12.94982 -8.50718,-22.30771 -20.32271,-22.30771 -11.721,0 -19.94461,9.16885 -19.94461,22.30771 0,12.76077 8.41266,22.11867 19.94461,22.11867 z m 27.60108,-57.3762 h 1.22881 c 3.78097,0.37809 6.42765,3.68644 6.14408,7.37289 v 56.90358 a 6.6166959,6.6166959 0 0 1 -7.18384,6.14408 h -1.32334 a 6.8057444,6.8057444 0 0 1 -6.14408,-7.56194 v -2.36311 a 29.586083,29.586083 0 0 1 -22.87486,9.92505 c -18.7158,0 -32.70538,-15.12388 -32.70538,-35.06849 0,-20.41724 13.70601,-35.25754 32.70538,-35.25754 8.69623,-0.18905 17.01436,3.40287 22.87486,9.92504 v -2.55215 -1.13429 c 0.28358,-3.78097 3.59192,-6.52217 7.27837,-6.2386 z m -103.31498,-0.56714 c 17.67603,0 28.64084,11.05933 28.64084,28.92441 v 34.40682 a 6.9947928,6.9947928 0 0 1 -7.56194,7.56194 h -1.41786 a 6.9947928,6.9947928 0 0 1 -6.42765,-7.56194 v -32.13824 c 0,-10.77576 -6.33312,-17.29793 -17.01436,-17.29793 h -0.18905 a 17.67603,17.67603 0 0 0 -18.43222,16.91983 v 34.02873 a 6.8057444,6.8057444 0 0 1 -7.37289,6.04955 h -1.22882 a 7.089317,7.089317 0 0 1 -6.61669,-7.56194 v -86.39515 a 7.1838413,7.1838413 0 0 1 7.84551,-7.56193 h 1.22881 c 3.78097,0.47262 6.6167,3.78096 6.14408,7.56193 v 32.13824 a 30.531325,30.531325 0 0 1 22.40224,-9.07432 z m -69.09721,30.62585 c 8.41265,1.70143 19.56651,5.4824 19.56651,18.90484 0,12.94982 -10.87028,21.36248 -27.79012,21.36248 -15.12388,0 -26.9394,-5.19884 -26.9394,-11.91006 a 5.6714536,5.6714536 0 0 1 1.70143,-4.25359 c 1.13429,-0.94524 2.45763,-1.41786 3.8755,-1.32334 2.17405,0.18905 4.15906,0.94525 5.95502,1.98501 4.25359,2.45763 8.9798,3.78097 13.89506,3.68645 6.42765,0 13.23339,-2.36311 13.23339,-8.88528 0,-4.34811 -3.11929,-6.42765 -11.721,-8.12908 l -5.8605,-1.13429 c -12.8553,-2.45763 -19.37747,-8.97981 -19.37747,-19.37747 0,-12.76077 10.49219,-20.98438 26.84488,-20.98438 13.98959,0 24.1982,4.44264 24.1982,10.49219 a 5.2933567,5.2933567 0 0 1 -5.57692,5.57693 c -1.70144,-0.0945 -3.4974,-0.66167 -5.00979,-1.51239 -3.78097,-1.89048 -8.03456,-2.93025 -12.28815,-2.83572 -8.22361,0 -12.19362,2.83572 -12.19362,8.50718 0,4.63168 3.21382,6.90026 11.721,8.6017 l 5.67145,1.22882 z m -49.43617,-30.05871 h 0.47262 c 3.68644,0.3781 6.33312,3.4974 5.95502,7.08932 v 1.41786 c -0.37809,3.78097 -3.78096,6.52217 -7.56193,6.04955 -12.57173,0 -20.32271,7.75099 -20.32271,20.13366 v 29.49156 a 6.8057444,6.8057444 0 0 1 -7.46742,6.14408 h -0.28357 a 6.8057444,6.8057444 0 0 1 -7.27836,-7.56194 v -55.3912 -1.22881 a 6.7112201,6.7112201 0 0 1 7.27836,-6.14408 h 1.60691 c 3.78097,0.3781 6.42765,3.68645 6.14408,7.37289 v 2.17406 a 27.412026,27.412026 0 0 1 21.457,-9.45242 z m -83.18132,11.72101 c -10.11409,0 -17.86508,6.80574 -19.85009,17.39245 h 40.07827 v -0.47262 a 18.715797,18.715797 0 0 0 -20.22818,-17.01436 z m 0,-11.72101 c 20.98438,0 34.97396,13.23339 34.97396,32.89443 0,6.6167 -4.72621,7.37289 -8.22361,7.37289 h -46.50592 c 2.07954,11.15386 10.39767,17.58151 22.68582,17.58151 5.67145,0 11.34291,-1.22882 16.35269,-3.97002 1.89048,-1.13429 3.97002,-1.79596 6.14407,-1.89048 h 1.1343 c 2.7412,0.28357 4.53716,2.7412 4.15906,5.38788 0,5.95502 -12.28815,12.94982 -28.16822,12.94982 -22.68581,0 -37.80969,-14.17864 -37.80969,-35.25754 a 33.745149,33.745149 0 0 1 35.25754,-34.97396 z m -49.43617,55.20215 h 0.47262 c 3.40287,0.18905 5.95502,2.83573 5.8605,6.04955 0,6.04955 -5.67145,9.07433 -16.73079,9.07433 -16.06912,0 -25.52154,-9.736 -25.52154,-26.08869 v -31.00395 h -6.71122 a 6.0495505,6.0495505 0 0 1 -5.67145,-6.33312 v -1.22882 a 6.3331232,6.3331232 0 0 1 6.90027,-5.4824 h 5.38788 v -16.06912 c 0.0945,-4.15907 3.59192,-7.56194 7.94003,-7.56194 4.44264,0 8.03456,3.30835 8.12908,7.56194 v 16.06912 h 19.18842 c 3.78097,0.0945 6.80575,3.1193 6.71122,6.6167 0,3.68644 -3.21382,6.52217 -6.99479,6.42764 h -18.90485 v 29.20799 c 0,9.07432 4.2536,14.17863 11.91006,14.17863 1.70143,0 3.49739,-0.28357 5.10431,-0.94524 0.94524,-0.28357 1.89048,-0.47262 2.93025,-0.47262 z m -85.16633,-55.20215 c 18.05413,0 28.92441,11.05934 28.92441,29.49156 v 33.27253 a 6.6166959,6.6166959 0 0 1 0,1.32334 c -0.28357,3.78097 -3.78097,6.52217 -7.65646,6.2386 h -1.41786 a 6.9002686,6.9002686 0 0 1 -6.42765,-7.56194 v -31.00395 c 0,-11.53195 -6.04955,-17.9596 -17.20341,-17.9596 -11.34291,0 -18.3377,7.37289 -18.3377,19.37746 v 31.00395 a 6.9002686,6.9002686 0 0 1 -7.56194,6.14408 h -1.13429 a 6.9002686,6.9002686 0 0 1 -6.42765,-7.56194 v -55.3912 -1.22881 a 6.9002686,6.9002686 0 0 1 7.56194,-6.14408 h 1.70144 c 3.78097,0.47262 6.52217,3.78097 6.04955,7.37289 v 1.51239 c 5.67145,-5.8605 13.80053,-9.07433 22.11867,-8.88528 z m -60.96813,0 h 1.41787 c 3.87549,0.3781 6.80574,3.68645 6.42764,7.37289 v 56.90359 c -0.37809,3.78096 -3.78097,6.42764 -7.65646,6.14407 h -1.41786 a 6.9947928,6.9947928 0 0 1 -6.42765,-7.56194 v -55.39119 -1.22882 c 0.28357,-3.78097 3.78097,-6.42765 7.65646,-6.04955 z m 0,-26.46678 h 0.94524 c 4.53717,0 8.03456,4.06454 7.84551,8.79075 v 0.94524 c -0.37809,4.72621 -4.25359,8.12909 -8.6017,7.75099 h -0.94524 c -4.44264,0 -8.03456,-3.87549 -8.03456,-8.69623 v -0.75619 c 0.3781,-4.72621 4.25359,-8.50718 8.79075,-8.12909 z m -30.625849,26.46678 h 1.22882 c 3.49739,0.18905 6.238599,3.21382 6.049549,6.6167 0,1.41786 -0.28358,2.64668 -0.7562,3.78097 l -19.566509,52.93356 c -1.70144,4.82074 -4.159067,6.9948 -8.223609,6.9948 h -0.66167 a 8.2236078,8.2236078 0 0 1 -8.601704,-7.46742 L 50.294932,681.89777 36.494394,719.51842 c -1.417863,5.19883 -3.970017,7.37289 -8.412656,7.37289 h -0.472621 c -4.064542,0 -6.616696,-2.17406 -8.318132,-6.90027 L 0.57518762,667.05747 a 15.785546,15.785546 0 0 1 -0.567145,-4.72621 6.4276474,6.4276474 0 0 1 6.90026798,-5.67145 h 0.472621 c 3.6864454,-0.18905 6.9002694,2.55215 7.1838424,6.23859 l 14.462206,42.53591 14.462207,-41.11804 c 1.039767,-4.25359 3.402872,-6.33313 7.183842,-6.33313 h 0.567145 c 3.780969,-0.0945 6.900268,2.74121 7.183841,6.42765 l 13.895062,41.11804 14.273154,-42.72495 c 0.47262,-3.78097 3.78097,-6.52217 7.65647,-6.2386 z"
     id="wide-logo-name" />
</svg>
